# xmcd
#
# Track frame offsets: 
#        150
#        9335
#        34837
#        55739
#        76475
#        100298
#        119319
#        140867
#        164974
#        183041
#        209363
#        227424
#        249371
#
# Disc length: 3657 seconds
#
# Revision: 1
# Processed by: cddbd v1.5.1PL2 Copyright (c) Steve Scherf et al.
# Submitted via: ExactAudioCopy v0.95a5
#
DISCID=ab0e470d
DTITLE=The Tones - Birth of Spirit (2004 Remaked)
DYEAR=2004
DGENRE=New Age
TTITLE0=Dolphins dream
TTITLE1=Road to heaven
TTITLE2=The first dawning
TTITLE3=Second dawning
TTITLE4=The second chapter
TTITLE5=Return to yourself
TTITLE6=My land
TTITLE7=Ethnology
TTITLE8=Inclination of abyss
TTITLE9=Fairy tale on a crying rain
TTITLE10=Weeping of the land
TTITLE11=To the rhythm of your sight
TTITLE12=Between lust and tenderness
EXTD=YEAR: 2004
EXTT0=
EXTT1=
EXTT2=
EXTT3=
EXTT4=
EXTT5=
EXTT6=
EXTT7=
EXTT8=
EXTT9=
EXTT10=
EXTT11=
EXTT12=
PLAYORDER=
